P3
3 4
255
100 123 255 167 152 255 148 160 255
152 130 255 160 255 255 167 152 255
145 167 255 130 148 255 145 167 255
148 160 255 160 255 255 100 123 255
