P3
3 4
255
100 123 145 167 152 130 148 160 255
152 130 148 160 255 145 167 152 224
145 167 152 130 148 160 145 167 152
148 160 255 160 255 145 100 123 145