P3
3 4
255
100 184 145 167 228 130 148 240 255
152 195 148 160 255 145 167 228 224
145 250 152 130 222 160 145 250 152
148 240 255 160 255 145 100 184 145
