P3
3 4
255
120 123 145 200 152 130 177 160 255
182 130 148 192 255 145 200 152 224
174 167 152 156 148 160 174 167 152
177 160 255 192 255 145 120 123 145
