P3
3 4
255
123 145 100 152 130 167 160 255 148
130 148 152 255 145 160 152 224 167
167 152 145 148 160 130 167 152 145
160 255 148 255 145 160 123 145 100
